<svg height='300px' width='300px'  fill="#7D7D7D" xmlns:dc="http://purl.org/dc/elements/1.1/" xmlns:cc="http://creativecommons.org/ns#" xmlns:rdf="http://www.w3.org/1999/02/22-rdf-syntax-ns#" xmlns:svg="http://www.w3.org/2000/svg" xmlns="http://www.w3.org/2000/svg" xmlns:sodipodi="http://sodipodi.sourceforge.net/DTD/sodipodi-0.dtd" xmlns:inkscape="http://www.inkscape.org/namespaces/inkscape" version="1.1" x="0px" y="0px" viewBox="0 0 100 100"><g transform="translate(0,-952.36218)"><path style="text-indent:0;text-transform:none;direction:ltr;block-progression:tb;baseline-shift:baseline;color:#7D7D7D;enable-background:accumulate;" d="m 32.279401,970.37799 c -4.9322,0 -9.867301,1.8956 -13.625001,5.6875 -7.5148,7.5839 -7.5058,19.848 0,27.43751 l 29.906301,30.25 a 2.0001995,2.0001995 0 0 0 2.8437,0 c 9.983,-10.0743 19.9546,-20.1444 29.9376,-30.2187 7.5151,-7.58391 7.5151,-19.85371 0,-27.43751 -7.5151,-7.5839 -19.7349,-7.584 -27.25,0 l -4.0938,4.125 -4.125,-4.1563 c -3.7576,-3.7919 -8.6615,-5.6875 -13.5938,-5.6875 z m 0,3.9688 c 3.8894,0 7.7793,1.5017 10.7813,4.5312 l 5.5313,5.5938 a 2.0001995,2.0001995 0 0 0 2.8437,0 l 5.5,-5.5625 c 6.0041,-6.0591 15.5585,-6.059 21.5625,0 6.0041,6.059 6.0041,15.7535 0,21.81251 -9.5058,9.5928 -18.9941,19.1883 -28.5,28.7812 L 21.4982,1000.6905 c -5.9996,-6.06651 -6.0038,-15.75351 0,-21.81251 3.002101,-3.0295 6.891901,-4.5312 10.781201,-4.5312 z" fill="#7D7D7D" fill-opacity="1" stroke="#7D7D7D" marker="none" visibility="visible" display="inline" overflow="visible"></path></g></svg>